<svg width="20" height="20" viewBox="0 0 20 20" fill="none" xmlns="http://www.w3.org/2000/svg">
<path d="M10.873 4.23926H1.45215V18.5479H15.7607V8.93066H17.2129V18.8418C17.2129 19.4813 16.6942 20 16.0547 20H1.1582C0.51866 20 0 19.4813 0 18.8418V3.94531C1.25201e-07 3.30577 0.518659 2.78711 1.1582 2.78711H10.873V4.23926ZM11.1816 12.7402V6.98438H12.5928V16.0752L6.04199 9.97949V15.7959H4.63086V6.7207L11.1816 12.7402ZM16.4893 0.00292969C16.5655 1.9045 18.0929 3.43118 19.9941 3.50879L19.999 3.51367L19.9941 3.51758C18.0933 3.59516 16.5661 5.12144 16.4893 7.02246L16.4863 7.02637L16.4805 7.02051C16.4026 5.12014 14.8771 3.5947 12.9766 3.51758L12.9727 3.51367L12.9766 3.50879C14.8775 3.43164 16.4032 1.90582 16.4805 0.00488281L16.4863 0L16.4893 0.00292969Z" fill="url(#paint0_linear_71_4975)"/>
<defs>
<linearGradient id="paint0_linear_71_4975" x1="0" y1="2.5" x2="16.6667" y2="19.9992" gradientUnits="userSpaceOnUse">
<stop stop-color="#C81AF7"/>
<stop offset="1" stop-color="#1D90EA"/>
</linearGradient>
</defs>
</svg>
