<svg width="83" height="20" viewBox="0 0 83 20" fill="none" xmlns="http://www.w3.org/2000/svg">
<path fill-rule="evenodd" clip-rule="evenodd" d="M0 0L13.9664 12.8714V0.563455H16.9756V20L3.00941 6.96836V19.4047H0V0ZM47.5716 0.562477L53.0943 7.42848L58.6167 0.562477L62.5073 0.56321L55.0216 9.75705L62.5073 19.4052H58.6167L53.094 12.2434L47.5716 19.4042H43.6812L51.1667 9.75608L43.6812 0.562477H47.5716ZM38.6082 0.563943V3.48211H27.3283V8.48931H37.5806V11.3808H27.3283V16.487H38.6079V19.4047H24.3192V0.563943H38.6082ZM82.9067 0.561256V3.47893H76.005V19.4015H72.9958V3.47893H66.0943V0.561256H82.9067Z" fill="black"/>
</svg>
