<svg width="16" height="16" viewBox="0 0 16 16" fill="none" xmlns="http://www.w3.org/2000/svg">
<path d="M3.52836 2.46965C3.23546 2.17677 2.76058 2.17678 2.4677 2.46969C2.17482 2.76259 2.17483 3.23746 2.46773 3.53035L6.93769 8.00001L2.46831 12.4697C2.17543 12.7626 2.17544 13.2375 2.46834 13.5303C2.76125 13.8232 3.23612 13.8232 3.52901 13.5303L7.99839 9.06063L12.4684 13.5303C12.7613 13.8232 13.2362 13.8232 13.5291 13.5303C13.8219 13.2374 13.8219 12.7625 13.529 12.4697L9.05901 7.99994L13.5283 3.53031C13.8212 3.23741 13.8212 2.76254 13.5283 2.46965C13.2354 2.17677 12.7605 2.17678 12.4676 2.46969L7.99832 6.93931L3.52836 2.46965Z" fill="#536280"/>
</svg>
