<svg width="16" height="16" viewBox="0 0 16 16" fill="none" xmlns="http://www.w3.org/2000/svg">
<path d="M8.25 2.49805C8.25 2.08383 8.58579 1.74805 9 1.74805H13.5C13.7525 1.74805 13.9758 1.87281 14.1118 2.06405C14.1291 2.08851 14.1451 2.11405 14.1595 2.14055C14.2172 2.24682 14.25 2.36861 14.25 2.49805V6.99805C14.25 7.41226 13.9142 7.74805 13.5 7.74805C13.0858 7.74805 12.75 7.41226 12.75 6.99805V4.30882L4.31077 12.748H7C7.41421 12.748 7.75 13.0838 7.75 13.498C7.75 13.9123 7.41421 14.248 7 14.248H2.51313C2.31683 14.2515 2.11946 14.1783 1.96967 14.0285C1.88541 13.9442 1.82539 13.8449 1.78961 13.7392C1.76393 13.6635 1.75 13.5824 1.75 13.498V8.99805C1.75 8.58383 2.08579 8.24805 2.5 8.24805C2.91421 8.24805 3.25 8.58383 3.25 8.99805V11.6875L11.6895 3.24805H9C8.58579 3.24805 8.25 2.91226 8.25 2.49805Z" fill="#536280"/>
</svg>
