<svg width="16" height="16" viewBox="0 0 16 16" fill="none" xmlns="http://www.w3.org/2000/svg">
<path d="M2 10C3.10457 10 4 9.10457 4 8C4 6.89543 3.10457 6 2 6C0.895431 6 0 6.89543 0 8C0 9.10457 0.895431 10 2 10ZM2 8.5C1.72386 8.5 1.5 8.27614 1.5 8C1.5 7.72386 1.72386 7.5 2 7.5C2.27614 7.5 2.5 7.72386 2.5 8C2.5 8.27614 2.27614 8.5 2 8.5Z" fill="#536280"/>
<path d="M8 10C9.10457 10 10 9.10457 10 8C10 6.89543 9.10457 6 8 6C6.89543 6 6 6.89543 6 8C6 9.10457 6.89543 10 8 10ZM8 8.5C7.72386 8.5 7.5 8.27614 7.5 8C7.5 7.72386 7.72386 7.5 8 7.5C8.27614 7.5 8.5 7.72386 8.5 8C8.5 8.27614 8.27614 8.5 8 8.5Z" fill="#536280"/>
<path d="M16 8C16 9.10457 15.1046 10 14 10C12.8954 10 12 9.10457 12 8C12 6.89543 12.8954 6 14 6C15.1046 6 16 6.89543 16 8ZM14.5 8C14.5 7.72386 14.2761 7.5 14 7.5C13.7239 7.5 13.5 7.72386 13.5 8C13.5 8.27614 13.7239 8.5 14 8.5C14.2761 8.5 14.5 8.27614 14.5 8Z" fill="#536280"/>
</svg>
