<svg width="24" height="24" viewBox="0 0 24 24" fill="none" xmlns="http://www.w3.org/2000/svg">
<path d="M6.17377 3.25C7.41377 3.25 8.57378 3.74 9.44378 4.61L11.1038 6.27L11.9838 7.15L12.8638 6.27L14.5238 4.61C15.3938 3.74 16.5538 3.26 17.7938 3.26C19.0338 3.26 20.1938 3.74 21.0638 4.61C21.9338 5.48 22.4138 6.64 22.4238 7.87C22.4238 9.11 21.9338 10.27 21.0638 11.15L11.9838 20.23L2.90377 11.15C1.10377 9.35 1.10377 6.41 2.90377 4.61C3.77377 3.74 4.93377 3.26 6.17377 3.25ZM6.17377 2C4.67377 2 3.16377 2.58 2.02377 3.73C-0.266226 6.02 -0.266226 9.74 2.02377 12.03L11.9938 22L21.9638 12.03C23.1138 10.88 23.6838 9.38 23.6938 7.88C23.6938 6.38 23.1138 4.87 21.9638 3.73C20.8138 2.58 19.3038 2 17.8038 2C16.3038 2 14.7938 2.57 13.6538 3.72L11.9938 5.38L10.3338 3.72C9.18377 2.58 7.68377 2 6.17377 2Z" fill="black"/>
</svg>
