<svg width="24" height="24" viewBox="0 0 24 24" fill="none" xmlns="http://www.w3.org/2000/svg">
<path d="M11.9375 2.95327C12.6627 2.95327 13.3671 3.04102 14.042 3.20344C13.8436 3.54932 13.6918 3.92533 13.5957 4.32318C13.0611 4.20601 12.5064 4.14369 11.9375 4.14369C7.66896 4.14369 4.19153 7.62906 4.19135 11.8953C4.1916 16.1616 7.66901 19.6377 11.9375 19.6377C13.1188 19.6377 14.2527 19.3717 15.3292 18.8482L15.7626 18.6389L16.2248 18.7905L20.1598 20.1139L18.8353 16.1808L18.6829 15.715L18.8931 15.2769C19.417 14.2009 19.6835 13.0573 19.6836 11.8861C19.6835 10.9983 19.5308 10.145 19.2539 9.34991C19.6378 9.20719 19.9959 9.012 20.3187 8.77144C20.6796 9.74368 20.877 10.7962 20.8749 11.8953C20.8749 13.2951 20.5512 14.6197 19.97 15.8005H19.9598L22.0467 22L15.8435 19.9139C14.6621 20.4852 13.3379 20.8188 11.9375 20.8188C7.00204 20.8188 3.00025 16.8189 3 11.8861C3.00006 6.95301 6.99239 2.95327 11.9375 2.95327ZM15.7626 18.6389L15.758 18.638H15.7672L15.7626 18.6389ZM14.9581 13.4532V7.96512H16.3038V16.632L10.0597 10.8212V16.366H8.71401V7.71401L14.9581 13.4532ZM17.777 2.00279C17.8498 3.81447 19.305 5.26973 21.1167 5.34248L21.1195 5.34527L21.1139 5.34992C19.3039 5.42404 17.8502 6.87752 17.777 8.68774L17.7743 8.69146L17.7705 8.68774C17.6973 6.87717 16.2432 5.42351 14.4327 5.34992L14.428 5.34527L14.4299 5.34248C16.242 5.27025 17.6978 3.81485 17.7705 2.00279L17.7743 2L17.777 2.00279Z" fill="black"/>
<path d="M11.9375 2.95327C12.6627 2.95327 13.3671 3.04102 14.042 3.20344C13.8436 3.54932 13.6918 3.92533 13.5957 4.32318C13.0611 4.20601 12.5064 4.14369 11.9375 4.14369C7.66896 4.14369 4.19153 7.62906 4.19135 11.8953C4.1916 16.1616 7.66901 19.6377 11.9375 19.6377C13.1188 19.6377 14.2527 19.3717 15.3292 18.8482L15.7626 18.6389L16.2248 18.7905L20.1598 20.1139L18.8353 16.1808L18.6829 15.715L18.8931 15.2769C19.417 14.2009 19.6835 13.0573 19.6836 11.8861C19.6835 10.9983 19.5308 10.145 19.2539 9.34991C19.6378 9.20719 19.9959 9.012 20.3187 8.77144C20.6796 9.74368 20.877 10.7962 20.8749 11.8953C20.8749 13.2951 20.5512 14.6197 19.97 15.8005H19.9598L22.0467 22L15.8435 19.9139C14.6621 20.4852 13.3379 20.8188 11.9375 20.8188C7.00204 20.8188 3.00025 16.8189 3 11.8861C3.00006 6.95301 6.99239 2.95327 11.9375 2.95327ZM15.7626 18.6389L15.758 18.638H15.7672L15.7626 18.6389ZM14.9581 13.4532V7.96512H16.3038V16.632L10.0597 10.8212V16.366H8.71401V7.71401L14.9581 13.4532ZM17.777 2.00279C17.8498 3.81447 19.305 5.26973 21.1167 5.34248L21.1195 5.34527L21.1139 5.34992C19.3039 5.42404 17.8502 6.87752 17.777 8.68774L17.7743 8.69146L17.7705 8.68774C17.6973 6.87717 16.2432 5.42351 14.4327 5.34992L14.428 5.34527L14.4299 5.34248C16.242 5.27025 17.6978 3.81485 17.7705 2.00279L17.7743 2L17.777 2.00279Z" fill="url(#paint0_linear_176_10795)"/>
<path d="M11.9375 2.95327C12.6627 2.95327 13.3671 3.04102 14.042 3.20344C13.8436 3.54932 13.6918 3.92533 13.5957 4.32318C13.0611 4.20601 12.5064 4.14369 11.9375 4.14369C7.66896 4.14369 4.19153 7.62906 4.19135 11.8953C4.1916 16.1616 7.66901 19.6377 11.9375 19.6377C13.1188 19.6377 14.2527 19.3717 15.3292 18.8482L15.7626 18.6389L16.2248 18.7905L20.1598 20.1139L18.8353 16.1808L18.6829 15.715L18.8931 15.2769C19.417 14.2009 19.6835 13.0573 19.6836 11.8861C19.6835 10.9983 19.5308 10.145 19.2539 9.34991C19.6378 9.20719 19.9959 9.012 20.3187 8.77144C20.6796 9.74368 20.877 10.7962 20.8749 11.8953C20.8749 13.2951 20.5512 14.6197 19.97 15.8005H19.9598L22.0467 22L15.8435 19.9139C14.6621 20.4852 13.3379 20.8188 11.9375 20.8188C7.00204 20.8188 3.00025 16.8189 3 11.8861C3.00006 6.95301 6.99239 2.95327 11.9375 2.95327ZM15.7626 18.6389L15.758 18.638H15.7672L15.7626 18.6389ZM14.9581 13.4532V7.96512H16.3038V16.632L10.0597 10.8212V16.366H8.71401V7.71401L14.9581 13.4532ZM17.777 2.00279C17.8498 3.81447 19.305 5.26973 21.1167 5.34248L21.1195 5.34527L21.1139 5.34992C19.3039 5.42404 17.8502 6.87752 17.777 8.68774L17.7743 8.69146L17.7705 8.68774C17.6973 6.87717 16.2432 5.42351 14.4327 5.34992L14.428 5.34527L14.4299 5.34248C16.242 5.27025 17.6978 3.81485 17.7705 2.00279L17.7743 2L17.777 2.00279Z" fill="url(#paint1_linear_176_10795)"/>
<defs>
<linearGradient id="paint0_linear_176_10795" x1="3" y1="2" x2="21.9976" y2="22.0466" gradientUnits="userSpaceOnUse">
<stop stop-color="#C81AF7"/>
<stop offset="1" stop-color="#1D90EA"/>
</linearGradient>
<linearGradient id="paint1_linear_176_10795" x1="3" y1="2" x2="21.9976" y2="22.0466" gradientUnits="userSpaceOnUse">
<stop stop-color="#8208A3"/>
<stop offset="1" stop-color="#076EBE"/>
</linearGradient>
</defs>
</svg>
