<svg width="24" height="24" viewBox="0 0 24 24" fill="none" xmlns="http://www.w3.org/2000/svg">
<path d="M22 21.1104L15.2192 14.3338C17.7195 11.3853 17.5794 6.97751 14.7991 4.1989C13.3389 2.73963 11.4187 2 9.49844 2C7.5782 2 5.65796 2.72964 4.19777 4.1989C1.26741 7.12744 1.26741 11.8751 4.19777 14.8036C5.65796 16.2629 7.5782 17.0025 9.49844 17.0025C11.2187 17.0025 12.9389 16.4028 14.339 15.2234L21.1199 22L22 21.1204V21.1104ZM9.49844 15.7431C7.82823 15.7431 6.25803 15.0935 5.07788 13.914C3.89774 12.7346 3.24766 11.1654 3.24766 9.49625C3.24766 7.82709 3.89774 6.25787 5.07788 5.07846C6.25803 3.89905 7.82823 3.24938 9.49844 3.24938C11.1686 3.24938 12.7388 3.89905 13.919 5.07846C15.0991 6.25787 15.7492 7.82709 15.7492 9.49625C15.7492 11.1654 15.0991 12.7346 13.919 13.914C12.7388 15.0935 11.1686 15.7431 9.49844 15.7431Z" fill="black"/>
</svg>
