<svg width="24" height="24" viewBox="0 0 24 24" fill="none" xmlns="http://www.w3.org/2000/svg">
<path d="M18 15C20.21 15 22 16.79 22 19V22H2V19C2 16.79 3.79 15 6 15H18ZM6 16.25C4.48 16.25 3.25 17.48 3.25 19V20.75H20.75V19C20.75 17.48 19.52 16.25 18 16.25H6ZM12 2C15.04 2 17.5 4.46 17.5 7.5C17.5 10.54 15.04 13 12 13C8.96 13 6.5 10.54 6.5 7.5C6.5 4.46 8.96 2 12 2ZM12 3.25C9.66 3.25 7.75 5.16 7.75 7.5C7.75 9.84 9.66 11.75 12 11.75C14.34 11.75 16.25 9.84 16.25 7.5C16.25 5.16 14.34 3.25 12 3.25Z" fill="black"/>
</svg>
