<svg width="76" height="76" viewBox="0 0 76 76" fill="none" xmlns="http://www.w3.org/2000/svg">
<g filter="url(#filter0_ddd_12_4708)">
<path d="M16 35C16 22.8497 25.8497 13 38 13C50.1503 13 60 22.8497 60 35C60 47.1503 50.1503 57 38 57C25.8497 57 16 47.1503 16 35Z" fill="url(#paint0_linear_12_4708)" shape-rendering="crispEdges"/>
<path d="M37.9156 25.9533C38.639 25.9533 39.3417 26.041 40.015 26.2034C39.817 26.5493 39.6656 26.9253 39.5697 27.3232C39.0365 27.206 38.4831 27.1437 37.9156 27.1437C33.6575 27.1437 30.1886 30.6291 30.1884 34.8953C30.1887 39.1616 33.6576 42.6377 37.9156 42.6377C39.0939 42.6377 40.2251 42.3717 41.299 41.8482L41.7313 41.6389L42.1924 41.7905L46.1177 43.1139L44.7965 39.1808L44.6444 38.715L44.8541 38.2769C45.3768 37.2009 45.6426 36.0573 45.6427 34.8861C45.6426 33.9983 45.4903 33.145 45.214 32.3499C45.597 32.2072 45.9542 32.012 46.2762 31.7714C46.6363 32.7437 46.8331 33.7962 46.831 34.8953C46.831 36.2951 46.5081 37.6197 45.9283 38.8005H45.9182L48 45L41.812 42.9139C40.6335 43.4852 39.3125 43.8188 37.9156 43.8188C32.9922 43.8188 29.0002 39.8189 29 34.8861C29.0001 29.953 32.9826 25.9533 37.9156 25.9533ZM41.7313 41.6389L41.7267 41.638H41.7359L41.7313 41.6389ZM40.9288 36.4532V30.9651H42.2712V39.632L36.0424 33.8212V39.366H34.7V30.714L40.9288 36.4532ZM43.7408 25.0028C43.8133 26.8145 45.265 28.2697 47.0722 28.3425L47.0751 28.3453L47.0695 28.3499C45.2639 28.424 43.8138 29.8775 43.7408 31.6877L43.738 31.6915L43.7343 31.6877C43.6613 29.8772 42.2107 28.4235 40.4047 28.3499L40.4 28.3453L40.4019 28.3425C42.2096 28.2703 43.6617 26.8148 43.7343 25.0028L43.738 25L43.7408 25.0028Z" fill="white"/>
</g>
<defs>
<filter id="filter0_ddd_12_4708" x="0" y="0" width="76" height="76" filterUnits="userSpaceOnUse" color-interpolation-filters="sRGB">
<feFlood flood-opacity="0" result="BackgroundImageFix"/>
<feColorMatrix in="SourceAlpha" type="matrix" values="0 0 0 0 0 0 0 0 0 0 0 0 0 0 0 0 0 0 127 0" result="hardAlpha"/>
<feMorphology radius="3" operator="erode" in="SourceAlpha" result="effect1_dropShadow_12_4708"/>
<feOffset dy="5"/>
<feGaussianBlur stdDeviation="2.5"/>
<feComposite in2="hardAlpha" operator="out"/>
<feColorMatrix type="matrix" values="0 0 0 0 0 0 0 0 0 0 0 0 0 0 0 0 0 0 0.2 0"/>
<feBlend mode="normal" in2="BackgroundImageFix" result="effect1_dropShadow_12_4708"/>
<feColorMatrix in="SourceAlpha" type="matrix" values="0 0 0 0 0 0 0 0 0 0 0 0 0 0 0 0 0 0 127 0" result="hardAlpha"/>
<feMorphology radius="1" operator="dilate" in="SourceAlpha" result="effect2_dropShadow_12_4708"/>
<feOffset dy="8"/>
<feGaussianBlur stdDeviation="5"/>
<feComposite in2="hardAlpha" operator="out"/>
<feColorMatrix type="matrix" values="0 0 0 0 0 0 0 0 0 0 0 0 0 0 0 0 0 0 0.14 0"/>
<feBlend mode="normal" in2="effect1_dropShadow_12_4708" result="effect2_dropShadow_12_4708"/>
<feColorMatrix in="SourceAlpha" type="matrix" values="0 0 0 0 0 0 0 0 0 0 0 0 0 0 0 0 0 0 127 0" result="hardAlpha"/>
<feMorphology radius="2" operator="dilate" in="SourceAlpha" result="effect3_dropShadow_12_4708"/>
<feOffset dy="3"/>
<feGaussianBlur stdDeviation="7"/>
<feComposite in2="hardAlpha" operator="out"/>
<feColorMatrix type="matrix" values="0 0 0 0 0 0 0 0 0 0 0 0 0 0 0 0 0 0 0.12 0"/>
<feBlend mode="normal" in2="effect2_dropShadow_12_4708" result="effect3_dropShadow_12_4708"/>
<feBlend mode="normal" in="SourceGraphic" in2="effect3_dropShadow_12_4708" result="shape"/>
</filter>
<linearGradient id="paint0_linear_12_4708" x1="16" y1="13" x2="60.5" y2="57.5" gradientUnits="userSpaceOnUse">
<stop stop-color="#C81AF7"/>
<stop offset="1" stop-color="#1D90EA"/>
</linearGradient>
</defs>
</svg>
