<svg width="19" height="20" viewBox="0 0 19 20" fill="none" xmlns="http://www.w3.org/2000/svg">
<path d="M8.91556 0.953269C9.63898 0.953269 10.3417 1.04102 11.015 1.20344C10.817 1.54932 10.6656 1.92533 10.5697 2.32318C10.0365 2.20601 9.48309 2.14369 8.91556 2.14369C4.65751 2.14369 1.18861 5.62906 1.18843 9.89534C1.18868 14.1616 4.65756 17.6377 8.91556 17.6377C10.0939 17.6377 11.2251 17.3717 12.299 16.8482L12.7313 16.6389L13.1924 16.7905L17.1177 18.1139L15.7965 14.1808L15.6444 13.715L15.8541 13.2769C16.3768 12.2009 16.6426 11.0573 16.6427 9.8861C16.6426 8.99833 16.4903 8.14503 16.214 7.34991C16.597 7.20719 16.9542 7.012 17.2762 6.77144C17.6363 7.74368 17.8331 8.79625 17.831 9.89534C17.831 11.2951 17.5081 12.6197 16.9283 13.8005H16.9182L19 20L12.812 17.9139C11.6335 18.4852 10.3125 18.8188 8.91556 18.8188C3.99222 18.8188 0.000247 14.8189 0 9.8861C5.7e-05 4.95301 3.9826 0.953269 8.91556 0.953269ZM12.7313 16.6389L12.7267 16.638H12.7359L12.7313 16.6389ZM11.9288 11.4532V5.96512H13.2712V14.632L7.04244 8.8212V14.366H5.7V5.71401L11.9288 11.4532ZM14.7408 0.00279039C14.8133 1.81447 16.265 3.26973 18.0722 3.34248L18.0751 3.34527L18.0695 3.34992C16.2639 3.42404 14.8138 4.87752 14.7408 6.68774L14.738 6.69146L14.7343 6.68774C14.6613 4.87717 13.2107 3.42351 11.4047 3.34992L11.4 3.34527L11.4019 3.34248C13.2096 3.27025 14.6617 1.81485 14.7343 0.00279039L14.738 0L14.7408 0.00279039Z" fill="white"/>
</svg>
