<svg width="29" height="7" viewBox="0 0 29 7" fill="none" xmlns="http://www.w3.org/2000/svg">
<path fill-rule="evenodd" clip-rule="evenodd" d="M0 0L4.88532 4.50498V0.197209H5.9379V7L1.05266 2.43893V6.79163H0V0ZM16.6401 0.196867L18.5719 2.59997L20.5036 0.196867L21.8645 0.197123L19.2461 3.41497L21.8645 6.7918H20.5036L18.5718 4.2852L16.6401 6.79146H15.2793L17.8977 3.41463L15.2793 0.196867H16.6401ZM13.5048 0.19738V1.21874H9.5592V2.97126H13.1453V3.9833H9.5592V5.77045H13.5047V6.79163H8.50662V0.19738H13.5048ZM29 0.196439V1.21763H26.5859V6.79052H25.5333V1.21763H23.1192V0.196439H29Z" fill="#6B7281"/>
</svg>
