<svg width="15" height="15" viewBox="0 0 15 15" fill="none" xmlns="http://www.w3.org/2000/svg">
<path d="M13.9043 0.350911C14.041 0.487631 14.123 0.656251 14.1504 0.856771C14.1868 1.04818 14.1641 1.23047 14.082 1.40365L10.3223 13.1341C10.2311 13.4349 10.0443 13.6855 9.7617 13.8861C9.4883 14.0775 9.1784 14.1732 8.832 14.1732C8.513 14.1732 8.2214 14.0729 7.957 13.8724C7.6927 13.6628 7.5195 13.3848 7.4375 13.0384L6.207 7.9661L1.13477 6.7357C0.7793 6.6536 0.5013 6.4896 0.30078 6.2435C0.10026 5.9883 0 5.6921 0 5.3548C0 5.0085 0.0956998 4.70312 0.28711 4.4388C0.4694 4.18359 0.72005 3.98763 1.03906 3.85091L12.7695 0.0911503C12.9427 2.6077e-07 13.1296 -0.0227896 13.3301 0.0227904C13.5397 0.0683604 13.7311 0.177731 13.9043 0.350911ZM6.4668 6.7357L11.375 1.84115L1.47656 5.1634C1.4401 5.1634 1.40365 5.1816 1.36719 5.2181C1.33073 5.2546 1.3125 5.2956 1.3125 5.3411C1.3125 5.3867 1.33073 5.4277 1.36719 5.4642C1.40365 5.5007 1.4401 5.5189 1.47656 5.5189L6.4668 6.7357ZM9.0918 12.7786L12.332 2.79818L7.4375 7.6107L8.75 12.7786C8.75 12.8242 8.7682 12.8652 8.8047 12.9017C8.8411 12.9382 8.8776 12.9564 8.9141 12.9564C8.9596 12.9564 9.0007 12.9382 9.0371 12.9017C9.0736 12.8652 9.0918 12.8242 9.0918 12.7786Z" fill="#8695B2"/>
</svg>
